<svg width="40" height="40" viewBox="0 0 40 40" fill="none" xmlns="http://www.w3.org/2000/svg">
<path d="M1 1H39V20C39 30.4934 30.4934 39 20 39H1V1Z" stroke="white" stroke-width="2"/>
<path d="M19.5736 10.2027C21.0856 10.6888 16.6542 13.0761 19.4239 14.6772C20.9809 15.5778 24.3793 11.5036 26.0859 10.5887C27.5381 9.81677 30.0832 9.65952 31.3707 12.347C33.0025 15.7493 31.5803 24.5981 25.6967 28.1576C19.7532 31.7314 12.2678 29.9159 9.67779 24.355C6.66863 17.8793 14.3487 8.50161 19.5736 10.2027V10.2027ZM21.3851 19.4232C22.4779 21.7676 28.4214 18.7084 27.0591 15.4205C26.1758 13.2905 20.3521 17.2074 21.3851 19.4232Z" fill="white"/>
</svg>
