<svg width="30" height="30" viewBox="0 0 30 30" fill="none" xmlns="http://www.w3.org/2000/svg">
<path d="M1 1H29V20C29 24.9706 24.9706 29 20 29H1V1Z" stroke="white" stroke-width="2"/>
<path d="M8.65188 6C6.6289 6 5 7.6289 5 9.65187V22.3481C5 24.3711 6.6289 26 8.65188 26H15.5331V18.1812H13.4656V15.3662H15.5331V12.9612C15.5331 11.0717 16.7547 9.33687 19.5688 9.33687C20.7081 9.33687 21.5506 9.44625 21.5506 9.44625L21.4844 12.075C21.4844 12.075 20.6251 12.0669 19.6875 12.0669C18.6727 12.0669 18.51 12.5344 18.51 13.3106V15.3663H21.565L21.4319 18.1813H18.51V26H21.3481C23.3711 26 25 24.3711 25 22.3481V9.65189C25 7.62892 23.3711 6.00002 21.3481 6.00002H8.65186L8.65188 6Z" fill="white"/>
</svg>
