<svg width="30" height="30" viewBox="0 0 30 30" fill="none" xmlns="http://www.w3.org/2000/svg">
<path d="M1 1H29V20C29 24.9706 24.9706 29 20 29H1V1Z" stroke="white" stroke-width="2"/>
<path d="M15.1272 6.01688C16.2179 6 17.3024 6.01 18.3855 6C18.4512 7.27569 18.9099 8.57514 19.8437 9.47706C20.7757 10.4015 22.0939 10.8246 23.3764 10.9678V14.3236C22.1745 14.2842 20.9669 14.0342 19.8762 13.5167C19.4012 13.3016 18.9587 13.0247 18.5255 12.7416C18.5199 15.1767 18.5355 17.6087 18.5099 20.0339C18.4449 21.1989 18.0605 22.3584 17.383 23.3184C16.2929 24.9166 14.4009 25.9586 12.4577 25.9911C11.2658 26.0592 10.0751 25.7342 9.05941 25.1354C7.3762 24.1428 6.19176 22.3259 6.01925 20.3758C5.99752 19.9628 5.99419 19.549 6.00925 19.1357C6.15926 17.55 6.94368 16.033 8.16124 15.0011C9.54131 13.7992 11.4745 13.2266 13.2846 13.5654C13.3015 14.7998 13.2521 16.033 13.2521 17.2675C12.4252 17 11.4589 17.075 10.7364 17.5769C10.2078 17.9251 9.80827 18.4375 9.59944 19.0351C9.42693 19.4576 9.47631 19.927 9.48631 20.3758C9.68445 21.7433 10.9995 22.8928 12.4033 22.7684C13.334 22.7584 14.2259 22.2184 14.711 21.4277C14.8678 21.1508 15.0435 20.8677 15.0529 20.542C15.1347 19.0513 15.1022 17.5669 15.1122 16.0762C15.1191 12.7166 15.1022 9.36643 15.1279 6.0175L15.1272 6.01688Z" fill="white"/>
</svg>
