<svg width="40" height="40" viewBox="0 0 40 40" fill="none" xmlns="http://www.w3.org/2000/svg">
<path d="M1 1H39V20C39 30.4934 30.4934 39 20 39H1V1Z" stroke="white" stroke-width="2"/>
<path d="M19.1111 24.6667C21.0748 24.6667 22.6667 23.0748 22.6667 21.1111C22.6667 19.1474 21.0748 17.5556 19.1111 17.5556C17.1474 17.5556 15.5555 19.1474 15.5555 21.1111C15.5555 23.0748 17.1474 24.6667 19.1111 24.6667Z" fill="white"/>
<path d="M15.7778 10L13.7444 12.2222H10.2222C9 12.2222 8 13.2222 8 14.4444V27.7778C8 29 9 30 10.2222 30H28C29.2222 30 30.2222 29 30.2222 27.7778V14.4444C30.2222 13.2222 29.2222 12.2222 28 12.2222H24.4778L22.4444 10H15.7778ZM19.1111 26.6667C16.0444 26.6667 13.5556 24.1778 13.5556 21.1111C13.5556 18.0444 16.0444 15.5556 19.1111 15.5556C22.1778 15.5556 24.6667 18.0444 24.6667 21.1111C24.6667 24.1778 22.1778 26.6667 19.1111 26.6667Z" fill="white"/>
</svg>
