<svg width="40" height="40" viewBox="0 0 40 40" fill="none" xmlns="http://www.w3.org/2000/svg">
<path d="M1 1H39V20C39 30.4934 30.4934 39 20 39H1V1Z" stroke="white" stroke-width="2"/>
<path d="M25.8 10.0136V10H12.4667V10.0136C12.3787 10.0061 12.2901 10 12.2 10C10.4328 10 9 11.4328 9 13.2C9 14.9675 10.4328 16.4 12.2 16.4C12.8533 16.4 13.46 16.2032 13.9656 15.8667H14.0667L13 16.9333V30H24.7333V16.9333L23.6667 15.8667H23.7677C24.2733 16.2032 24.88 16.4 25.5333 16.4C27.3008 16.4 28.7333 14.9675 28.7333 13.2C28.7333 11.5229 27.4424 10.1493 25.8 10.0136V10.0136Z" fill="white"/>
<path d="M25.8 11.3333H11.6666C10.8957 11.5629 10.3333 12.3547 10.3333 13.2C10.3333 13.6951 10.53 14.1699 10.88 14.5199C11.2301 14.87 11.7049 15.0667 12.2 15.0667C12.6951 15.0667 13.1698 14.87 13.5199 14.5199C13.87 14.1699 14.0666 13.6951 14.0666 13.2C14.0666 12.9133 14 12.6427 13.8845 12.4H23.8485C23.7291 12.6498 23.667 12.9231 23.6666 13.2C23.6666 13.6951 23.8633 14.1699 24.2134 14.5199C24.5634 14.87 25.0382 15.0667 25.5333 15.0667C26.0284 15.0667 26.5032 14.87 26.8532 14.5199C27.2033 14.1699 27.4 13.6951 27.4 13.2C27.4 12.2603 26.7042 11.4632 25.8 11.3333ZM12.2 14C11.9878 14 11.7843 13.9157 11.6343 13.7657C11.4843 13.6157 11.4 13.4122 11.4 13.2C11.4 12.9878 11.4843 12.7843 11.6343 12.6343C11.7843 12.4843 11.9878 12.4 12.2 12.4C12.4122 12.4 12.6156 12.4843 12.7657 12.6343C12.9157 12.7843 13 12.9878 13 13.2C13 13.4122 12.9157 13.6157 12.7657 13.7657C12.6156 13.9157 12.4122 14 12.2 14V14ZM25.5333 14C25.3211 14 25.1177 13.9157 24.9676 13.7657C24.8176 13.6157 24.7333 13.4122 24.7333 13.2C24.7333 12.9878 24.8176 12.7843 24.9676 12.6343C25.1177 12.4843 25.3211 12.4 25.5333 12.4C25.7455 12.4 25.949 12.4843 26.099 12.6343C26.249 12.7843 26.3333 12.9878 26.3333 13.2C26.3333 13.4122 26.249 13.6157 26.099 13.7657C25.949 13.9157 25.7455 14 25.5333 14Z" fill="#222222"/>
<path d="M16.4667 15.8667C16.7612 15.8667 17 15.6279 17 15.3333C17 15.0388 16.7612 14.8 16.4667 14.8C16.1721 14.8 15.9333 15.0388 15.9333 15.3333C15.9333 15.6279 16.1721 15.8667 16.4667 15.8667Z" fill="#222222"/>
<path d="M18.8666 15.8667C19.1612 15.8667 19.4 15.6279 19.4 15.3333C19.4 15.0388 19.1612 14.8 18.8666 14.8C18.5721 14.8 18.3333 15.0388 18.3333 15.3333C18.3333 15.6279 18.5721 15.8667 18.8666 15.8667Z" fill="#222222"/>
<path d="M21.2667 15.8667C21.5612 15.8667 21.8 15.6279 21.8 15.3333C21.8 15.0388 21.5612 14.8 21.2667 14.8C20.9721 14.8 20.7333 15.0388 20.7333 15.3333C20.7333 15.6279 20.9721 15.8667 21.2667 15.8667Z" fill="#222222"/>
<path d="M19.8952 30C19.9193 29.9131 19.9322 29.8235 19.9333 29.7333V18.8C19.9333 18.5171 19.8209 18.2458 19.6209 18.0458C19.4209 17.8457 19.1496 17.7333 18.8667 17.7333C18.5838 17.7333 18.3124 17.8457 18.1124 18.0458C17.9124 18.2458 17.8 18.5171 17.8 18.8V29.7333C17.8 29.8261 17.8157 29.9147 17.8379 30H19.8952ZM23.3619 30C23.386 29.9131 23.3988 29.8235 23.4 29.7333V18.8C23.4 18.5171 23.2876 18.2458 23.0876 18.0458C22.8875 17.8457 22.6162 17.7333 22.3333 17.7333C22.0504 17.7333 21.7791 17.8457 21.5791 18.0458C21.379 18.2458 21.2667 18.5171 21.2667 18.8V29.7333C21.2667 29.8261 21.2824 29.9147 21.3048 30H23.3619Z" fill="#222222"/>
<path d="M16.4288 30C16.4509 29.9147 16.4666 29.8261 16.4666 29.7333V18.8C16.4666 18.5171 16.3543 18.2458 16.1542 18.0458C15.9542 17.8457 15.6829 17.7333 15.4 17.7333C15.1171 17.7333 14.8458 17.8457 14.6457 18.0458C14.4457 18.2458 14.3333 18.5171 14.3333 18.8V29.7333C14.3333 29.8261 14.349 29.9147 14.3712 30H16.4288V30Z" fill="#222222"/>
</svg>
