<svg width="30" height="30" viewBox="0 0 30 30" fill="none" xmlns="http://www.w3.org/2000/svg">
<path d="M1 1H29V20C29 24.9706 24.9706 29 20 29H1V1Z" stroke="white" stroke-width="2"/>
<path d="M24.9024 10.9031C24.8912 10.0633 24.734 9.23193 24.4379 8.44606C24.181 7.78318 23.7887 7.18117 23.286 6.67849C22.7834 6.17581 22.1813 5.78351 21.5185 5.52667C20.7427 5.23546 19.9231 5.07799 19.0947 5.06098C18.0281 5.01331 17.6899 5 14.9823 5C12.2746 5 11.9276 5 10.8687 5.06098C10.0406 5.07812 9.22148 5.23558 8.44606 5.52667C7.78308 5.78333 7.18098 6.17557 6.67827 6.67827C6.17557 7.18097 5.78333 7.78308 5.52667 8.44606C5.23487 9.22124 5.07775 10.0406 5.06209 10.8687C5.01441 11.9365 5 12.2746 5 14.9823C5 17.6899 5 18.0358 5.06209 19.0958C5.07872 19.9252 5.23506 20.7434 5.52667 21.5207C5.78377 22.1835 6.17629 22.7853 6.67916 23.2878C7.18203 23.7903 7.78419 24.1824 8.44717 24.439C9.22046 24.7419 10.0398 24.9106 10.8698 24.9379C11.9376 24.9856 12.2758 25 14.9834 25C17.691 25 18.038 25 19.0969 24.9379C19.9253 24.9216 20.7449 24.7645 21.5207 24.4733C22.1834 24.2162 22.7852 23.8238 23.2879 23.3211C23.7905 22.8185 24.1829 22.2166 24.4401 21.5539C24.7317 20.7778 24.888 19.9595 24.9046 19.1291C24.9523 18.0624 24.9667 17.7243 24.9667 15.0155C24.9645 12.3079 24.9645 11.9642 24.9024 10.9031V10.9031ZM14.9756 20.1026C12.1438 20.1026 9.84976 17.8085 9.84976 14.9767C9.84976 12.1449 12.1438 9.85087 14.9756 9.85087C16.3351 9.85087 17.6388 10.3909 18.6001 11.3522C19.5614 12.3135 20.1015 13.6173 20.1015 14.9767C20.1015 16.3362 19.5614 17.64 18.6001 18.6012C17.6388 19.5625 16.3351 20.1026 14.9756 20.1026V20.1026ZM20.3055 10.8565C19.6435 10.8565 19.1102 10.3221 19.1102 9.66127C19.1102 9.50438 19.1411 9.34903 19.2012 9.20408C19.2612 9.05913 19.3492 8.92743 19.4601 8.81649C19.5711 8.70555 19.7028 8.61755 19.8477 8.55751C19.9927 8.49747 20.148 8.46657 20.3049 8.46657C20.4618 8.46657 20.6172 8.49747 20.7621 8.55751C20.9071 8.61755 21.0388 8.70555 21.1497 8.81649C21.2606 8.92743 21.3486 9.05913 21.4087 9.20408C21.4687 9.34903 21.4996 9.50438 21.4996 9.66127C21.4996 10.3221 20.9652 10.8565 20.3055 10.8565Z" fill="white"/>
<path d="M14.9756 18.3064C16.8145 18.3064 18.3053 16.8156 18.3053 14.9767C18.3053 13.1378 16.8145 11.6471 14.9756 11.6471C13.1367 11.6471 11.646 13.1378 11.646 14.9767C11.646 16.8156 13.1367 18.3064 14.9756 18.3064Z" fill="white"/>
</svg>
