<svg width="30" height="30" viewBox="0 0 30 30" fill="none" xmlns="http://www.w3.org/2000/svg">
<path d="M1 1H29V20C29 24.9706 24.9706 29 20 29H1V1Z" stroke="white" stroke-width="2"/>
<path d="M18.0696 5H11.9304C6.32808 5 5 6.32808 5 11.9304V18.0696C5 23.6719 6.32808 25 11.9304 25H18.0696C23.6719 25 25 23.6719 25 18.0696V11.9304C25 6.32808 23.6588 5 18.0696 5ZM21.1457 19.2671H19.6939C19.1439 19.2671 18.9746 18.8308 17.9852 17.8283C17.1259 16.9953 16.7453 16.8846 16.5334 16.8846C16.234 16.8846 16.149 16.969 16.149 17.3796V18.6914C16.149 19.0433 16.0384 19.2546 15.1072 19.2546C13.5672 19.2546 11.8585 18.3233 10.6604 16.5884C8.85363 14.046 8.35927 12.1417 8.35927 11.7479C8.35927 11.536 8.44364 11.3379 8.8505 11.3379H10.3055C10.6736 11.3379 10.8136 11.5073 10.9567 11.901C11.676 13.9778 12.8741 15.7972 13.3685 15.7972C13.551 15.7972 13.6354 15.7128 13.6354 15.2472V13.1022C13.5797 12.1129 13.0591 12.0279 13.0591 11.6767C13.0591 11.5073 13.1991 11.3379 13.4235 11.3379H15.7115C16.0209 11.3379 16.1347 11.5073 16.1347 11.8717V14.7653C16.1347 15.0778 16.2746 15.1884 16.359 15.1884C16.5415 15.1884 16.6978 15.0778 17.0359 14.7391C18.0808 13.5672 18.8296 11.7604 18.8296 11.7604C18.9271 11.5485 19.0964 11.3504 19.4645 11.3504H20.9195C21.3557 11.3504 21.4532 11.5748 21.3557 11.8873C21.1732 12.7335 19.3927 15.2466 19.3927 15.2466C19.2396 15.5003 19.1808 15.6109 19.3927 15.894C19.5489 16.1059 20.057 16.5453 20.3951 16.939C21.017 17.6452 21.4951 18.2377 21.6226 18.6477C21.7657 19.0546 21.5545 19.2664 21.1439 19.2664L21.1457 19.2671Z" fill="white"/>
</svg>
